<svg width="1831" height="527" viewBox="0 0 1831 527" fill="none" xmlns="http://www.w3.org/2000/svg">
<path d="M568.834 399.04V211.902H641.345V380.029C641.345 391.713 644.218 402.406 649.963 412.11C655.708 421.615 663.336 429.239 672.846 434.982C682.553 440.527 693.153 443.299 704.643 443.299C716.53 443.299 727.229 440.527 736.738 434.982C746.248 429.239 753.875 421.615 759.621 412.11C765.366 402.406 768.239 391.713 768.239 380.029V211.902H840.75L841.047 508.946H768.536L768.239 481.915C757.937 492.609 745.753 501.124 731.686 507.461C717.62 513.6 702.563 516.669 686.516 516.669C664.921 516.669 645.208 511.422 627.378 500.926C609.547 490.232 595.283 476.073 584.584 458.449C574.084 440.626 568.834 420.823 568.834 399.04Z" fill="#F8F8F8"/>
<path d="M1119.96 211.902H1192.47V508.946H1119.96L1116.69 472.113C1108.57 485.381 1097.77 496.173 1084.3 504.49C1071.03 512.61 1055.28 516.669 1037.05 516.669C1015.06 516.669 994.453 512.511 975.236 504.193C956.019 495.876 939.08 484.39 924.419 469.736C909.956 455.082 898.565 438.15 890.244 418.942C882.121 399.733 878.059 379.138 878.059 357.156C878.059 335.967 881.923 316.065 889.649 297.45C897.574 278.836 908.569 262.498 922.636 248.438C936.702 234.378 952.948 223.387 971.373 215.466C989.797 207.545 1009.61 203.584 1030.81 203.584C1050.42 203.584 1067.95 207.941 1083.41 216.654C1099.06 225.368 1112.33 236.457 1123.23 249.923L1119.96 211.902ZM1035.27 446.864C1050.72 446.864 1064.39 443.002 1076.28 435.279C1088.16 427.556 1097.47 417.159 1104.21 404.089C1110.95 390.821 1114.31 376.266 1114.31 360.424C1114.31 344.383 1110.95 329.828 1104.21 316.758C1097.47 303.49 1088.06 292.995 1075.98 285.272C1064.09 277.548 1050.52 273.687 1035.27 273.687C1020.01 273.687 1006.04 277.647 993.364 285.569C980.882 293.292 970.877 303.688 963.349 316.758C956.019 329.828 952.353 344.383 952.353 360.424C952.353 376.464 956.118 391.019 963.646 404.089C971.175 417.159 981.179 427.556 993.661 435.279C1006.34 443.002 1020.21 446.864 1035.27 446.864Z" fill="#F8F8F8"/>
<path d="M1253.43 508.946V63.3794H1325.94V508.946H1253.43Z" fill="#F8F8F8"/>
<path d="M1397.37 211.902H1469.89V508.946H1397.37V211.902ZM1434.22 173.583C1423.53 173.583 1414.51 170.117 1407.18 163.186C1399.85 156.057 1396.19 147.146 1396.19 136.452C1396.19 125.957 1399.85 117.144 1407.18 110.015C1414.51 102.886 1423.43 99.3218 1433.93 99.3218C1444.43 99.3218 1453.24 102.886 1460.38 110.015C1467.71 117.144 1471.37 125.957 1471.37 136.452C1471.37 147.146 1467.8 156.057 1460.67 163.186C1453.54 170.117 1444.72 173.583 1434.22 173.583Z" fill="#F8F8F8"/>
<path d="M1758.42 211.902H1830.94V508.946H1758.42L1755.16 472.113C1747.03 485.381 1736.24 496.173 1722.76 504.49C1709.49 512.61 1693.74 516.669 1675.51 516.669C1653.52 516.669 1632.92 512.511 1613.7 504.193C1594.48 495.876 1577.54 484.39 1562.88 469.736C1548.42 455.082 1537.03 438.15 1528.71 418.942C1520.58 399.733 1516.52 379.138 1516.52 357.156C1516.52 335.967 1520.39 316.065 1528.11 297.45C1536.04 278.836 1547.03 262.498 1561.1 248.438C1575.17 234.378 1591.41 223.387 1609.84 215.466C1628.26 207.545 1648.07 203.584 1669.27 203.584C1688.89 203.584 1706.42 207.941 1721.87 216.654C1737.52 225.368 1750.8 236.457 1761.69 249.923L1758.42 211.902ZM1673.73 446.864C1689.18 446.864 1702.85 443.002 1714.74 435.279C1726.63 427.556 1735.94 417.159 1742.67 404.089C1749.41 390.821 1752.78 376.266 1752.78 360.424C1752.78 344.383 1749.41 329.828 1742.67 316.758C1735.94 303.49 1726.53 292.995 1714.44 285.272C1702.56 277.548 1688.98 273.687 1673.73 273.687C1658.47 273.687 1644.51 277.647 1631.83 285.569C1619.35 293.292 1609.34 303.688 1601.81 316.758C1594.48 329.828 1590.82 344.383 1590.82 360.424C1590.82 376.464 1594.58 391.019 1602.11 404.089C1609.64 417.159 1619.64 427.556 1632.12 435.279C1644.8 443.002 1658.67 446.864 1673.73 446.864Z" fill="#F8F8F8"/>
<path fill-rule="evenodd" clip-rule="evenodd" d="M185.126 76.883L0 0C69.6507 74.8197 108.373 173.246 108.373 275.468V295.4C108.373 416.155 206.264 514.045 327.018 514.045H383.033C313.399 472.668 270.718 397.66 270.718 316.66V205.11C270.718 148.999 236.945 98.4038 185.126 76.883ZM167.228 141.918C174.43 141.918 180.269 136.079 180.269 128.877C180.269 121.674 174.43 115.835 167.228 115.835C160.025 115.835 154.187 121.674 154.187 128.877C154.187 136.079 160.025 141.918 167.228 141.918Z" fill="#F8F8F8"/>
<path d="M302.605 288.124C302.605 192.194 367.948 108.598 461.039 85.4328L530.445 68.1614C530.445 189.643 431.965 288.124 310.483 288.124H302.605Z" fill="#F8F8F8"/>
<path d="M530.441 526.722C530.441 430.792 465.097 347.196 372.007 324.031L302.6 306.76C302.6 428.241 401.081 526.722 522.563 526.722H530.441Z" fill="#F8F8F8"/>
</svg>
